#N canvas 1886 -19 1920 997 12;
#X obj 735 811 dac~;
#X obj 760 600 trombone;
#X obj 1080 743 bng 19 250 50 0 empty empty Right\ Wiimote\ A\ button 0 -10 0 12 #ffc7c6 #000000 #000000;
#X obj 1030 398 vsl 19 162 0 1 0 0 empty empty Right\ Wiimote\ X\ axis 0 -9 0 12 #ffc7c6 #000000 #000000 0 1;
#X obj 809 461 hsl 162 19 0 100 0 0 empty empty Right\ Wiimote\ Y\ axis -2 -10 0 12 #ffc7c6 #000000 #000000 0 1;
#X obj 908 169 bng 19 250 50 0 empty empty Right\ Wiimote\ B\ button 0 -10 0 12 #ffc7c6 #000000 #000000;
#X obj 813 504 trombone-pitch-handling;
#X obj 451 660 percussion;
#X obj 536 416 vsl 19 162 20 90 0 0 empty empty Left\ Wiimote\ Y\ axis 0 -9 0 12 #c6ffc7 #000000 #000000 0 1;
#X obj 120 569 hsl 162 19 20 80 0 0 empty empty Left\ Wiimote\ X\ axis -2 -10 0 12 #c6ffc7 #000000 #000000 0 1;
#X obj 315 577 hsl 162 19 0 2 0 0 empty empty Left\ Wiimote\ X\ acceleration -2 -10 0 12 #c6ffc7 #000000 #000000 0 1;
#X obj 578 447 vsl 19 162 0 2 0 0 empty empty Left\ Wiimote\ Y\ acceleration 0 -9 0 12 #c6ffc7 #000000 #000000 0 1;
#X obj 1436 73 netreceive -u -b 7562;
#X obj 1478 155 oscparse;
#X obj 1484 227 list trim;
#X obj 1479 276 route wiimote1;
#X obj 1641 226 route wiimote2;
#X text 1460 29 Network handling;
#X obj 1739 307 route accel;
#X obj 1492 341 route button;
#X obj 1391 390 route a;
#X obj 1470 390 route b;
#X obj 1386 435 send WM1BA;
#X obj 1498 442 send WM1BB;
#X obj 1742 368 unpack f f;
#X obj 1711 415 send WM2AX;
#X obj 1833 417 send WM2AY;
#X obj 1612 344 route ir;
#X obj 1601 402 unpack f f;
#X obj 1566 475 send WM1IRX;
#X obj 1819 218 route ir;
#X obj 1801 479 unpack f f;
#X obj 1834 604 send WM2IRY;
#X obj 1766 552 send WM2IRX;
#X obj 1634 527 send WM1IRY;
#X obj 52 224 receive WM2IRX;
#X obj 71 261 select 0;
#X msg 93 323 127;
#X obj 344 240 receive WM2AX;
#X obj 78 357 - 27;
#X obj 758 659 my-reverb 100 70 3000 20;
#X obj 51 443 < 20;
#X msg 53 510 20;
#X obj 215 389 > 80;
#X msg 223 465 80;
#X obj 112 445 spigot;
#X obj 156 407 tgl 19 0 empty empty empty 0 -10 0 12 #fcfcfc #000000 #000000 0 1;
#X obj 157 299 > 20;
#X obj 237 315 < 80;
#X obj 184 346 &&;
#X obj 225 436 select 1;
#X obj 30 482 select 1;
#X obj 362 309 abs;
#X obj 361 362 * 2;
#X obj 694 286 abs;
#X obj 690 337 * 2;
#X obj 704 225 receive WM2AY;
#X obj 471 77 select 0;
#X msg 493 139 127;
#X obj 478 173 - 27;
#X obj 512 261 spigot;
#X obj 556 223 tgl 19 0 empty empty empty 0 -10 0 12 #fcfcfc #000000 #000000 0 1;
#X obj 584 162 &&;
#X obj 625 252 select 1;
#X obj 430 298 select 1;
#X obj 452 40 receive WM2IRY;
#X obj 557 115 > 30;
#X obj 451 259 < 30;
#X msg 453 326 30;
#X msg 623 281 90;
#X obj 637 131 < 90;
#X obj 615 205 > 90;
#X obj 1088 657 receive WM1BA;
#X obj 896 85 receive WM1BB;
#X obj 805 320 - 27;
#X obj 811 265 receive WM1IRX;
#X obj 1143 160 receive WM1IRY;
#X obj 1150 242 expr 0 + ($f1 - 53) / (127 - 53);
#X connect 1 0 40 0;
#X connect 2 0 1 2;
#X connect 3 0 1 1;
#X connect 4 0 6 0;
#X connect 5 0 6 1;
#X connect 6 0 1 0;
#X connect 7 0 40 0;
#X connect 8 0 7 2;
#X connect 9 0 7 0;
#X connect 10 0 7 1;
#X connect 11 0 7 3;
#X connect 12 0 13 0;
#X connect 13 0 14 0;
#X connect 14 0 15 0;
#X connect 14 0 16 0;
#X connect 15 0 19 0;
#X connect 15 0 27 0;
#X connect 16 0 18 0;
#X connect 16 0 30 0;
#X connect 18 0 24 0;
#X connect 19 0 20 0;
#X connect 19 0 21 0;
#X connect 20 0 22 0;
#X connect 21 0 23 0;
#X connect 24 0 25 0;
#X connect 24 1 26 0;
#X connect 27 0 28 0;
#X connect 28 0 29 0;
#X connect 28 1 34 0;
#X connect 30 0 31 0;
#X connect 31 0 33 0;
#X connect 31 1 32 0;
#X connect 35 0 36 0;
#X connect 36 0 37 0;
#X connect 36 1 39 0;
#X connect 37 0 39 0;
#X connect 38 0 52 0;
#X connect 39 0 41 0;
#X connect 39 0 43 0;
#X connect 39 0 45 0;
#X connect 39 0 47 0;
#X connect 39 0 48 0;
#X connect 40 0 0 1;
#X connect 40 0 0 0;
#X connect 41 0 51 0;
#X connect 42 0 9 0;
#X connect 43 0 50 0;
#X connect 44 0 9 0;
#X connect 45 0 9 0;
#X connect 46 0 45 1;
#X connect 47 0 49 0;
#X connect 48 0 49 1;
#X connect 49 0 46 0;
#X connect 50 0 44 0;
#X connect 51 0 42 0;
#X connect 52 0 53 0;
#X connect 53 0 10 0;
#X connect 54 0 55 0;
#X connect 55 0 11 0;
#X connect 56 0 54 0;
#X connect 57 0 58 0;
#X connect 57 1 59 0;
#X connect 58 0 59 0;
#X connect 59 0 60 0;
#X connect 59 0 66 0;
#X connect 59 0 67 0;
#X connect 59 0 70 0;
#X connect 59 0 71 0;
#X connect 60 0 8 0;
#X connect 61 0 60 1;
#X connect 62 0 61 0;
#X connect 63 0 69 0;
#X connect 64 0 68 0;
#X connect 65 0 57 0;
#X connect 66 0 62 0;
#X connect 67 0 64 0;
#X connect 68 0 8 0;
#X connect 69 0 8 0;
#X connect 70 0 62 1;
#X connect 71 0 63 0;
#X connect 72 0 2 0;
#X connect 73 0 5 0;
#X connect 74 0 4 0;
#X connect 75 0 74 0;
#X connect 76 0 77 0;
#X connect 77 0 3 0;
