#N canvas -46 -14 1920 997 12;
#X obj 735 811 dac~;
#X obj 760 600 trombone;
#X obj 1068 555 bng 19 250 50 0 empty empty Right\ Wiimote\ A\ button 0 -10 0 12 #ffc7c6 #000000 #000000;
#X obj 1030 398 vsl 19 162 0 1 0 0 empty empty Right\ Wiimote\ X\ axis 0 -9 0 12 #ffc7c6 #000000 #000000 0 1;
#X obj 809 461 hsl 162 19 0 100 0 0 empty empty Right\ Wiimote\ Y\ axis -2 -10 0 12 #ffc7c6 #000000 #000000 0 1;
#X obj 978 351 bng 19 250 50 0 empty empty Right\ Wiimote\ B\ button 0 -10 0 12 #ffc7c6 #000000 #000000;
#X obj 813 504 trombone-pitch-handling;
#X obj 758 659 rev3~ 100 70 3000 20;
#X obj 536 593 percussion;
#X obj 621 349 vsl 19 162 0 100 0 0 empty empty Left\ Wiimote\ Y\ axis 0 -9 0 12 #c6ffc7 #000000 #000000 0 1;
#X obj 266 472 hsl 162 19 0 100 0 0 empty empty Left\ Wiimote\ X\ axis -2 -10 0 12 #c6ffc7 #000000 #000000 0 1;
#X obj 400 510 hsl 162 19 0 2 0 0 empty empty Left\ Wiimote\ X\ acceleration -2 -10 0 12 #c6ffc7 #000000 #000000 0 1;
#X obj 663 380 vsl 19 162 0 2 0 0 empty empty Left\ Wiimote\ Y\ acceleration 0 -9 0 12 #c6ffc7 #000000 #000000 0 1;
#X connect 1 0 7 0;
#X connect 2 0 1 2;
#X connect 3 0 1 1;
#X connect 4 0 6 0;
#X connect 5 0 6 1;
#X connect 6 0 1 0;
#X connect 7 0 0 0;
#X connect 7 0 0 1;
#X connect 8 0 7 0;
#X connect 9 0 8 2;
#X connect 10 0 8 0;
#X connect 11 0 8 1;
#X connect 12 0 8 3;
