#N canvas 0 0 1920 997 12;
#X obj 735 811 dac~;
#X obj 775 527 trombone;
#X obj 898 445 bng 19 250 50 0 empty empty empty 0 -10 0 12 #fcfcfc #000000 #000000;
#X obj 807 306 vsl 19 162 0 1 0 0 empty empty empty 0 -9 0 12 #fcfcfc #000000 #000000 0 1;
#X obj 409 351 hsl 162 19 1 100 1 0 empty empty empty -2 -10 0 12 #fcfcfc #000000 #000000 0 1;
#X obj 709 352 bng 19 250 50 0 empty empty empty 0 -10 0 12 #fcfcfc #000000 #000000;
#X obj 529 459 trombone-pitch-handling;
#X obj 373 220 *~ 100;
#X obj 381 288 snapshot~;
#X obj 487 197 metro 50;
#X obj 566 127 tgl 19 0 empty empty empty 0 -10 0 12 #fcfcfc #000000 #000000 0 1;
#X obj 356 166 osc~ 5;
#X obj 758 659 rev3~ 100 70 3000 20;
#X connect 1 0 12 0;
#X connect 2 0 1 2;
#X connect 3 0 1 1;
#X connect 4 0 6 0;
#X connect 5 0 6 1;
#X connect 6 0 1 0;
#X connect 7 0 8 0;
#X connect 8 0 4 0;
#X connect 9 0 8 0;
#X connect 10 0 9 0;
#X connect 11 0 7 0;
#X connect 12 0 0 0;
#X connect 12 0 0 1;
