#N canvas 1924 0 1920 997 12;
#X obj 57 429 soundfiler;
#N canvas 0 50 450 250 (subpatch) 0;
#X array kick 132300 float 2;
#A color 0;
#A width 2;
#X coords 0 1 132300 -1 200 140 1;
#X restore 54 32 graph;
#X obj 97 250 loadbang;
#N canvas 0 50 450 250 (subpatch) 0;
#X array snare 88200 float 2;
#A color 0;
#A width 2;
#X coords 0 1 88200 -1 200 140 1;
#X restore 325 34 graph;
#N canvas 0 50 450 250 (subpatch) 0;
#X array hi-hat 88200 float 2;
#A color 0;
#A width 2;
#X coords 0 1 88200 -1 200 140 1;
#X restore 586 36 graph;
#N canvas 0 50 450 250 (subpatch) 0;
#X array crash 88200 float 2;
#A color 0;
#A width 2;
#X coords 0 1 88200 -1 200 140 1;
#X restore 875 32 graph;
#X obj 322 428 soundfiler;
#X obj 615 422 soundfiler;
#X obj 933 427 soundfiler;
#X obj 1394 424 hsl 162 19 20 80 0 0 empty empty empty -2 -10 0 12 #fcfcfc #000000 #000000 0 1;
#X obj 1705 333 vsl 19 162 20 90 0 0 empty empty empty 0 -9 0 12 #fcfcfc #000000 #000000 0 1;
#X obj 1569 259 inlet;
#X text 1213 223 X position;
#X text 1561 211 Y position;
#X obj 1115 597 tabplay~ snare;
#X obj 1120 546 bng 19 250 50 0 empty empty empty 0 -10 0 12 #fcfcfc #000000 #000000;
#X obj 1236 543 spigot;
#X obj 1229 437 loadbang;
#X obj 1258 505 tgl 19 0 empty empty empty 0 -10 0 12 #fcfcfc #000000 #000000 0 1;
#X msg 1437 500 1;
#X obj 1394 628 tabplay~ hi-hat;
#X obj 1457 554 spigot;
#X obj 1509 503 tgl 19 0 empty empty empty 0 -10 0 12 #fcfcfc #000000 #000000 0 1;
#X obj 1413 587 bng 19 250 50 0 empty empty empty 0 -10 0 12 #fcfcfc #000000 #000000;
#X obj 1571 623 spigot;
#X obj 1632 591 tgl 19 0 empty empty empty 0 -10 0 12 #fcfcfc #000000 #000000 0 1;
#X obj 1572 673 bng 19 250 50 0 empty empty empty 0 -10 0 12 #fcfcfc #000000 #000000;
#X obj 1545 723 tabplay~ kick;
#X msg 1788 581 1;
#X obj 1749 651 spigot;
#X obj 1811 622 tgl 19 0 empty empty empty 0 -10 0 12 #fcfcfc #000000 #000000 0 1;
#X obj 1755 696 bng 19 250 50 0 empty empty empty 0 -10 0 12 #fcfcfc #000000 #000000;
#X obj 1715 732 tabplay~ crash;
#X obj 1219 255 inlet;
#X obj 1330 265 inlet;
#X text 1333 235 X acceleration;
#X obj 1687 269 inlet;
#X text 1687 204 Y acceleration;
#X obj 1335 612 vsl 19 162 0 2 0 0 empty empty empty 0 -9 0 12 #fcfcfc #000000 #000000 0 1;
#X text 1380 742 volume;
#X obj 1153 804 *~;
#X obj 1625 768 +~;
#X obj 1857 726 vsl 19 162 0 2 0 0 empty empty empty 0 -9 0 12 #fcfcfc #000000 #000000 0 1;
#X obj 1634 837 *~;
#X text 1778 805 volume;
#X obj 1362 937 outlet~;
#X text 1363 961 Left;
#X obj 1159 687 +~;
#X msg 69 373 read -resize kick.wav kick;
#X msg 334 372 read -resize snare.wav snare;
#X msg 627 366 read -resize hi-hat.wav hi-hat;
#X msg 945 371 read -resize crash.wav crash;
#X obj 1354 469 select 20 80;
#X obj 1701 532 select 30 90;
#X connect 2 0 48 0;
#X connect 2 0 49 0;
#X connect 2 0 50 0;
#X connect 2 0 51 0;
#X connect 9 0 52 0;
#X connect 10 0 53 0;
#X connect 11 0 10 0;
#X connect 14 0 47 0;
#X connect 15 0 14 0;
#X connect 15 0 18 0;
#X connect 16 0 15 0;
#X connect 17 0 18 0;
#X connect 17 0 22 0;
#X connect 17 0 25 0;
#X connect 17 0 30 0;
#X connect 18 0 16 1;
#X connect 19 0 18 0;
#X connect 19 0 22 0;
#X connect 20 0 47 1;
#X connect 21 0 23 0;
#X connect 22 0 21 1;
#X connect 23 0 20 0;
#X connect 23 0 22 0;
#X connect 24 0 26 0;
#X connect 25 0 24 1;
#X connect 26 0 25 0;
#X connect 26 0 27 0;
#X connect 27 0 41 0;
#X connect 28 0 25 0;
#X connect 28 0 30 0;
#X connect 29 0 31 0;
#X connect 30 0 29 1;
#X connect 31 0 32 0;
#X connect 31 0 30 0;
#X connect 32 0 41 1;
#X connect 33 0 9 0;
#X connect 34 0 38 0;
#X connect 36 0 42 0;
#X connect 38 0 40 1;
#X connect 40 0 45 0;
#X connect 41 0 43 0;
#X connect 42 0 43 1;
#X connect 43 0 45 0;
#X connect 47 0 40 0;
#X connect 48 0 0 0;
#X connect 49 0 6 0;
#X connect 50 0 7 0;
#X connect 51 0 8 0;
#X connect 52 0 16 0;
#X connect 52 1 21 0;
#X connect 52 2 19 0;
#X connect 53 0 24 0;
#X connect 53 1 29 0;
#X connect 53 2 28 0;
