#N canvas 1924 0 1920 997 12;
#X obj 57 429 soundfiler;
#N canvas 0 50 450 250 (subpatch) 0;
#X array kick 132300 float 2;
#A color 0;
#A width 2;
#X coords 0 1 132300 -1 200 140 1;
#X restore 54 32 graph;
#X obj 97 250 loadbang;
#X msg 69 373 read -resize samples/kick.wav kick;
#N canvas 0 50 450 250 (subpatch) 0;
#X array snare 88200 float 2;
#A color 0;
#A width 2;
#X coords 0 1 88200 -1 200 140 1;
#X restore 325 34 graph;
#N canvas 0 50 450 250 (subpatch) 0;
#X array hi-hat 88200 float 2;
#A color 0;
#A width 2;
#X coords 0 1 88200 -1 200 140 1;
#X restore 586 36 graph;
#N canvas 0 50 450 250 (subpatch) 0;
#X array crash 88200 float 2;
#A color 0;
#A width 2;
#X coords 0 1 88200 -1 200 140 1;
#X restore 875 32 graph;
#X obj 322 428 soundfiler;
#X msg 334 372 read -resize samples/snare.wav snare;
#X obj 615 422 soundfiler;
#X msg 627 366 read -resize samples/hi-hat.wav hi-hat;
#X obj 933 427 soundfiler;
#X msg 945 371 read -resize samples/crash.wav crash;
#X obj 1394 424 hsl 162 19 0 100 0 0 empty empty empty -2 -10 0 12 #fcfcfc #000000 #000000 0 1;
#X obj 1705 333 vsl 19 162 0 100 0 0 empty empty empty 0 -9 0 12 #fcfcfc #000000 #000000 0 1;
#X obj 1569 259 inlet;
#X text 1213 223 X position;
#X text 1561 211 Y position;
#X obj 1354 469 select 0 100;
#X obj 1115 597 tabplay~ snare;
#X obj 1120 546 bng 19 250 50 0 empty empty empty 0 -10 0 12 #fcfcfc #000000 #000000;
#X obj 1236 543 spigot;
#X obj 1229 437 loadbang;
#X obj 1258 505 tgl 19 0 empty empty empty 0 -10 0 12 #fcfcfc #000000 #000000 0 1;
#X msg 1437 500 1;
#X obj 1394 628 tabplay~ hi-hat;
#X obj 1457 554 spigot;
#X obj 1509 503 tgl 19 0 empty empty empty 0 -10 0 12 #fcfcfc #000000 #000000 0 1;
#X obj 1413 587 bng 19 250 50 0 empty empty empty 0 -10 0 12 #fcfcfc #000000 #000000;
#X obj 1701 532 select 0 100;
#X obj 1571 623 spigot;
#X obj 1632 591 tgl 19 0 empty empty empty 0 -10 0 12 #fcfcfc #000000 #000000 0 1;
#X obj 1572 673 bng 19 250 50 0 empty empty empty 0 -10 0 12 #fcfcfc #000000 #000000;
#X obj 1545 723 tabplay~ kick;
#X msg 1788 581 1;
#X obj 1749 651 spigot;
#X obj 1811 622 tgl 19 0 empty empty empty 0 -10 0 12 #fcfcfc #000000 #000000 0 1;
#X obj 1755 696 bng 19 250 50 0 empty empty empty 0 -10 0 12 #fcfcfc #000000 #000000;
#X obj 1715 732 tabplay~ crash;
#X obj 1219 255 inlet;
#X obj 1330 265 inlet;
#X text 1333 235 X acceleration;
#X obj 1687 269 inlet;
#X text 1687 204 Y acceleration;
#X obj 1335 612 vsl 19 162 0 2 0 0 empty empty empty 0 -9 0 12 #fcfcfc #000000 #000000 0 1;
#X text 1380 742 volume;
#X obj 1153 804 *~;
#X obj 1625 768 +~;
#X obj 1857 726 vsl 19 162 0 2 0 0 empty empty empty 0 -9 0 12 #fcfcfc #000000 #000000 0 1;
#X obj 1634 837 *~;
#X text 1778 805 volume;
#X obj 1362 937 outlet~;
#X text 1363 961 Left;
#X obj 1159 687 +~;
#X connect 2 0 3 0;
#X connect 2 0 8 0;
#X connect 2 0 10 0;
#X connect 2 0 12 0;
#X connect 3 0 0 0;
#X connect 8 0 7 0;
#X connect 10 0 9 0;
#X connect 12 0 11 0;
#X connect 13 0 18 0;
#X connect 14 0 29 0;
#X connect 15 0 14 0;
#X connect 18 0 21 0;
#X connect 18 1 26 0;
#X connect 18 2 24 0;
#X connect 19 0 53 0;
#X connect 20 0 19 0;
#X connect 20 0 23 0;
#X connect 21 0 20 0;
#X connect 22 0 23 0;
#X connect 22 0 27 0;
#X connect 22 0 31 0;
#X connect 22 0 36 0;
#X connect 23 0 21 1;
#X connect 24 0 23 0;
#X connect 24 0 27 0;
#X connect 25 0 53 1;
#X connect 26 0 28 0;
#X connect 27 0 26 1;
#X connect 28 0 25 0;
#X connect 28 0 27 0;
#X connect 29 0 30 0;
#X connect 29 1 35 0;
#X connect 29 2 34 0;
#X connect 30 0 32 0;
#X connect 31 0 30 1;
#X connect 32 0 31 0;
#X connect 32 0 33 0;
#X connect 33 0 47 0;
#X connect 34 0 31 0;
#X connect 34 0 36 0;
#X connect 35 0 37 0;
#X connect 36 0 35 1;
#X connect 37 0 38 0;
#X connect 37 0 36 0;
#X connect 38 0 47 1;
#X connect 39 0 13 0;
#X connect 40 0 44 0;
#X connect 42 0 48 0;
#X connect 44 0 46 1;
#X connect 46 0 51 0;
#X connect 47 0 49 0;
#X connect 48 0 49 1;
#X connect 49 0 51 0;
#X connect 53 0 46 0;
