#N canvas 2060 -15 1920 997 12;
#X obj 258 347 hsl 162 19 58.27 440 0 0 empty empty empty -2 -10 0 12 #fcfcfc #000000 #000000 0 1;
#X obj 635 160 hsl 162 19 0.95 1.05 0 0 empty empty empty -2 -10 0 12 #fcfcfc #000000 #000000 0 1;
#X floatatom 552 248 5 0 0 0 - - - 0;
#X obj 503 274 *;
#X obj 289 482 send pitch;
#X obj 286 211 receive pitch;
#X floatatom 530 312 5 0 0 0 - - - 0;
#X floatatom 429 244 5 0 0 0 - - - 0;
#X obj 507 177 bng 19 250 50 0 empty empty empty 0 -10 0 12 #fcfcfc #000000 #000000;
#X obj 472 484 spigot;
#X obj 609 506 spigot;
#X obj 527 440 tgl 19 0 empty empty empty 0 -10 0 12 #fcfcfc #000000 #000000 0 1;
#X obj 653 439 tgl 19 0 empty empty empty 0 -10 0 12 #fcfcfc #000000 #000000 0 1;
#X obj 742 351 bng 19 250 50 0 empty empty empty 0 -10 0 12 #fcfcfc #000000 #000000;
#X obj 282 422 spigot;
#X obj 809 39 inlet;
#X obj 947 42 inlet;
#X text 798 9 motion axis;
#X text 946 7 use vibrato?;
#X obj 451 641 outlet;
#X obj 477 381 loadbang;
#X floatatom 688 116 5 0 0 0 - - - 0;
#X obj 261 132 expr 58.27 + ($f1 * 381.73)/100;
#X obj 687 80 expr 0.99 + ($f1 * 0.02)/100;
#X connect 0 0 9 0;
#X connect 0 0 14 0;
#X connect 1 0 2 0;
#X connect 1 0 8 0;
#X connect 2 0 3 1;
#X connect 3 0 6 0;
#X connect 5 0 7 0;
#X connect 6 0 10 0;
#X connect 7 0 3 0;
#X connect 8 0 7 0;
#X connect 9 0 19 0;
#X connect 10 0 19 0;
#X connect 11 0 9 1;
#X connect 11 0 14 1;
#X connect 12 0 10 1;
#X connect 13 0 11 0;
#X connect 13 0 12 0;
#X connect 14 0 4 0;
#X connect 15 0 22 0;
#X connect 15 0 23 0;
#X connect 16 0 13 0;
#X connect 20 0 11 0;
#X connect 21 0 1 0;
#X connect 22 0 0 0;
#X connect 23 0 21 0;
