#N canvas -108 -13 1920 997 12;
#X obj 6 265 osc~;
#X obj 193 240 osc~;
#X obj 291 235 osc~;
#X obj 382 239 osc~;
#X obj 499 236 osc~;
#X obj 623 242 osc~;
#X obj 734 244 osc~;
#X obj 822 246 osc~;
#X text 54 106 fundamental;
#X text 529 47 harmonics;
#X obj 918 238 osc~;
#X obj 1030 250 osc~;
#X obj 251 51 hsl 162 19 58.27 440 0 0 empty empty empty -2 -10 0 12 #fcfcfc #000000 #000000 0 1;
#X obj 195 208 * 2;
#X obj 291 208 * 3;
#X obj 376 209 * 4;
#X obj 495 208 * 5;
#X obj 631 203 * 6;
#X obj 748 212 * 7;
#X obj 822 206 * 8;
#X obj 924 205 * 9;
#X obj 1037 208 * 10;
#X obj 537 835 *~;
#X obj 637 763 vsl 19 162 0 1 0 0 empty empty empty 0 -9 0 12 #fcfcfc #000000 #000000 0 1;
#X text 707 839 volume;
#X obj 140 545 +~;
#X obj 346 549 +~;
#X obj 590 538 +~;
#X obj 790 537 +~;
#X obj 1000 533 +~;
#X obj 242 582 +~;
#X obj 711 580 +~;
#X obj 904 610 +~;
#X obj 516 667 +~;
#X obj 1136 246 osc~;
#X obj 1232 238 osc~;
#X obj 1344 250 osc~;
#X obj 1136 206 * 11;
#X obj 1238 205 * 12;
#X obj 1351 208 * 13;
#X obj 1227 279 *~ 0.06;
#X obj 1341 281 *~ 0.04;
#X obj 1172 512 +~;
#X obj 1248 555 +~;
#X obj 1076 575 +~;
#X obj 1136 289 *~ 0.08;
#X obj 1027 281 *~ 0.1;
#X obj 913 279 *~ 0.3;
#X obj 189 289 *~ 0.6;
#X obj 286 285 *~ 0.59;
#X obj 379 286 *~ 0.58;
#X obj 500 277 *~ 0.57;
#X obj 617 291 *~ 0.56;
#X obj 731 283 *~ 0.4;
#X obj 822 289 *~ 0.35;
#X obj 56 41 inlet;
#X text 52 12 Pitch;
#X obj 1467 51 inlet;
#X text 1473 21 Attack;
#X obj 1482 110 tgl 19 0 empty empty empty 0 -10 0 12 #fcfcfc #000000 #000000 0 1;
#X obj 1468 81 bng 19 250 50 0 empty empty empty 0 -10 0 12 #fcfcfc #000000 #000000;
#X obj 1492 162 bng 19 250 50 0 empty empty empty 0 -10 0 12 #fcfcfc #000000 #000000;
#X obj 1564 166 bng 19 250 50 0 empty empty empty 0 -10 0 12 #fcfcfc #000000 #000000;
#X obj 1500 134 select 1 0;
#X obj 70 279 vline~;
#X obj 49 358 *~;
#X obj 1471 201 send attack;
#X obj 1599 205 send release;
#X obj 23 171 receive attack;
#X obj 146 168 receive release;
#X obj 125 404 *~;
#X obj 271 429 *~;
#X obj 402 338 *~;
#X obj 503 337 *~;
#X obj 619 343 *~;
#X obj 725 336 *~;
#X obj 827 343 *~;
#X obj 914 340 *~;
#X obj 1021 337 *~;
#X obj 1141 337 *~;
#X obj 1224 331 *~;
#X obj 1340 339 *~;
#X obj 192 425 vline~;
#X obj 334 422 vline~;
#X obj 442 437 vline~;
#X obj 558 433 vline~;
#X obj 659 435 vline~;
#X obj 754 430 vline~;
#X obj 858 436 vline~;
#X obj 958 434 vline~;
#X obj 1057 431 vline~;
#X obj 1168 436 vline~;
#X obj 1263 427 vline~;
#X obj 1376 437 vline~;
#X obj 321 160 receive attack;
#X obj 444 157 receive release;
#X obj 623 154 receive attack;
#X obj 746 151 receive release;
#X obj 877 139 receive attack;
#X obj 1000 136 receive release;
#X msg 45 213 1 40 0.9 100;
#X msg 147 355 1 45 0.88 95;
#X msg 289 352 1 50 0.85 90;
#X msg 407 368 1 55 0.8 86;
#X msg 513 363 1 60 0.82 80;
#X msg 614 365 1 65 0.79 75;
#X msg 709 360 1 80 0.7 70;
#X msg 813 366 1 85 0.65 60;
#X msg 913 364 1 90 0.6 55;
#X msg 1012 361 1 95 0.58 50;
#X msg 1123 366 1 100 0.5 45;
#X msg 1218 357 1 105 0.43 35;
#X msg 1331 367 1 110 0.3 28;
#X msg 122 237 0 300;
#X msg 209 396 0 300;
#X msg 351 393 0 300;
#X msg 459 408 0 300;
#X msg 575 404 0 300;
#X msg 676 406 0 300;
#X msg 771 401 0 300;
#X msg 875 407 0 300;
#X msg 975 405 0 300;
#X msg 1074 402 0 300;
#X msg 1185 407 0 300;
#X msg 1280 398 0 300;
#X msg 1393 408 0 300;
#X obj 732 721 inlet;
#X obj 534 907 outlet~;
#X connect 0 0 65 0;
#X connect 1 0 48 0;
#X connect 2 0 49 0;
#X connect 3 0 50 0;
#X connect 4 0 51 0;
#X connect 5 0 52 0;
#X connect 6 0 53 0;
#X connect 7 0 54 0;
#X connect 10 0 47 0;
#X connect 11 0 46 0;
#X connect 12 0 13 0;
#X connect 12 0 14 0;
#X connect 12 0 15 0;
#X connect 12 0 16 0;
#X connect 12 0 17 0;
#X connect 12 0 18 0;
#X connect 12 0 19 0;
#X connect 12 0 20 0;
#X connect 12 0 21 0;
#X connect 12 0 37 0;
#X connect 12 0 38 0;
#X connect 12 0 39 0;
#X connect 12 0 0 0;
#X connect 13 0 1 0;
#X connect 14 0 2 0;
#X connect 15 0 3 0;
#X connect 16 0 4 0;
#X connect 17 0 5 0;
#X connect 18 0 6 0;
#X connect 19 0 7 0;
#X connect 20 0 10 0;
#X connect 21 0 11 0;
#X connect 22 0 127 0;
#X connect 23 0 22 1;
#X connect 25 0 30 0;
#X connect 26 0 30 1;
#X connect 27 0 31 0;
#X connect 28 0 31 1;
#X connect 29 0 44 0;
#X connect 30 0 33 0;
#X connect 31 0 32 0;
#X connect 32 0 33 1;
#X connect 33 0 22 0;
#X connect 34 0 45 0;
#X connect 35 0 40 0;
#X connect 36 0 41 0;
#X connect 37 0 34 0;
#X connect 38 0 35 0;
#X connect 39 0 36 0;
#X connect 40 0 80 0;
#X connect 41 0 81 0;
#X connect 42 0 43 0;
#X connect 43 0 44 1;
#X connect 44 0 32 1;
#X connect 45 0 79 0;
#X connect 46 0 78 0;
#X connect 47 0 77 0;
#X connect 48 0 70 0;
#X connect 49 0 71 0;
#X connect 50 0 72 0;
#X connect 51 0 73 0;
#X connect 52 0 74 0;
#X connect 53 0 75 0;
#X connect 54 0 76 0;
#X connect 55 0 12 0;
#X connect 57 0 60 0;
#X connect 59 0 63 0;
#X connect 60 0 59 0;
#X connect 61 0 66 0;
#X connect 62 0 67 0;
#X connect 63 0 61 0;
#X connect 63 1 62 0;
#X connect 64 0 65 1;
#X connect 65 0 25 0;
#X connect 68 0 100 0;
#X connect 68 0 101 0;
#X connect 68 0 102 0;
#X connect 69 0 113 0;
#X connect 69 0 114 0;
#X connect 69 0 115 0;
#X connect 70 0 25 1;
#X connect 71 0 26 0;
#X connect 72 0 26 1;
#X connect 73 0 27 0;
#X connect 74 0 27 1;
#X connect 75 0 28 0;
#X connect 76 0 28 1;
#X connect 77 0 29 0;
#X connect 78 0 29 1;
#X connect 79 0 42 0;
#X connect 80 0 42 1;
#X connect 81 0 43 1;
#X connect 82 0 70 1;
#X connect 83 0 71 1;
#X connect 84 0 72 1;
#X connect 85 0 73 1;
#X connect 86 0 74 1;
#X connect 87 0 75 1;
#X connect 88 0 76 1;
#X connect 89 0 77 1;
#X connect 90 0 78 1;
#X connect 91 0 79 1;
#X connect 92 0 80 1;
#X connect 93 0 81 1;
#X connect 94 0 103 0;
#X connect 94 0 104 0;
#X connect 95 0 116 0;
#X connect 95 0 117 0;
#X connect 96 0 105 0;
#X connect 96 0 106 0;
#X connect 96 0 107 0;
#X connect 97 0 118 0;
#X connect 97 0 119 0;
#X connect 97 0 120 0;
#X connect 98 0 108 0;
#X connect 98 0 109 0;
#X connect 98 0 110 0;
#X connect 98 0 111 0;
#X connect 98 0 112 0;
#X connect 99 0 121 0;
#X connect 99 0 122 0;
#X connect 99 0 123 0;
#X connect 99 0 124 0;
#X connect 99 0 125 0;
#X connect 100 0 64 0;
#X connect 101 0 82 0;
#X connect 102 0 83 0;
#X connect 103 0 84 0;
#X connect 104 0 85 0;
#X connect 105 0 86 0;
#X connect 106 0 87 0;
#X connect 107 0 88 0;
#X connect 108 0 89 0;
#X connect 109 0 90 0;
#X connect 110 0 91 0;
#X connect 111 0 92 0;
#X connect 112 0 93 0;
#X connect 113 0 64 0;
#X connect 114 0 82 0;
#X connect 115 0 83 0;
#X connect 116 0 84 0;
#X connect 117 0 85 0;
#X connect 118 0 86 0;
#X connect 119 0 87 0;
#X connect 120 0 88 0;
#X connect 121 0 89 0;
#X connect 122 0 90 0;
#X connect 123 0 91 0;
#X connect 124 0 92 0;
#X connect 125 0 93 0;
#X connect 126 0 23 0;
